# xmcd
# 
# Track frame offsets:
#     150
#     16571
#     35383
#     52794
#     71343
#     88743
#     103730
# 
# Disc length: 1603
# 
# Revision: 0
# Processed by: cddbd v1.5.2PL0 Copyright (c) Steve Scherf et al.
# Submitted via: BonkEnc v1.0.8
# 
DISCID=47064107
DTITLE=SARINA - PREMIERE
DYEAR=2019
DGENRE=
TTITLE0=Song for a broken heart
TTITLE1=Ice Stalactites
TTITLE2=Fast Train
TTITLE3=Lovers' Lullaby
TTITLE4=Oasis
TTITLE5=Hide and Sick
TTITLE6=Safe asleep
EXTD=
EXTT0=
EXTT1=
EXTT2=
EXTT3=
EXTT4=
EXTT5=
EXTT6=
PLAYORDER=
